<svg width="33" height="32" viewBox="0 0 33 32" fill="none" xmlns="http://www.w3.org/2000/svg">
<path d="M16.2629 3.54663L16.2638 3.54748L29.1318 16.4062C29.1319 16.4062 29.132 16.4063 29.132 16.4064C29.5655 16.8401 29.5654 17.5426 29.1337 17.9761L29.1323 17.9775C28.9266 18.1849 28.6458 18.3015 28.349 18.3015H26.9932H26.1032V19.1915V28.3671C26.1032 28.4285 26.0549 28.4768 25.9934 28.4768H18.5764V22.3687V21.4787H17.6864H14.1874H13.2974V22.3687V28.4768H6.38018C6.31874 28.4768 6.27046 28.4285 6.27046 28.3671V19.1915V18.3015H5.38046H4.02459C3.4133 18.3015 2.91515 17.8033 2.91515 17.1921C2.91515 16.8986 3.03267 16.6154 3.24158 16.4064C3.24165 16.4063 3.24173 16.4062 3.24181 16.4062L16.1099 3.54748L16.1107 3.54663C16.1207 3.53662 16.1326 3.52868 16.1456 3.52327C16.1587 3.51785 16.1727 3.51506 16.1868 3.51506C16.201 3.51506 16.215 3.51785 16.228 3.52327C16.2411 3.52868 16.2529 3.53662 16.2629 3.54663Z" stroke="#253655" stroke-width="1.78"/>
</svg>
