<svg width="33" height="32" viewBox="0 0 33 32" fill="none" xmlns="http://www.w3.org/2000/svg">
<path d="M29.7611 15.7768L16.8929 2.91792C16.8002 2.82509 16.6902 2.75143 16.569 2.70118C16.4478 2.65093 16.318 2.62506 16.1868 2.62506C16.0556 2.62506 15.9258 2.65093 15.8046 2.70118C15.6835 2.75143 15.5734 2.82509 15.4808 2.91792L2.61248 15.7768C2.23759 16.1517 2.02515 16.661 2.02515 17.1921C2.02515 18.2949 2.92177 19.1915 4.02459 19.1915H5.38046V28.3671C5.38046 28.92 5.82721 29.3668 6.38018 29.3668H14.1874V22.3687H17.6864V29.3668H25.9934C26.5464 29.3668 26.9932 28.92 26.9932 28.3671V19.1915H28.349C28.8801 19.1915 29.3894 18.9822 29.7643 18.6042C30.5422 17.8231 30.5422 16.5579 29.7611 15.7768V15.7768Z" fill="#00A2DD"/>
</svg>
