<svg width="33" height="33" viewBox="0 0 33 33" fill="none" xmlns="http://www.w3.org/2000/svg">
<path d="M25.4372 15.1667L25.437 15.1661C24.8801 13.9128 24.0707 12.788 23.0592 11.8619L23.0585 11.8612L22.8647 11.6834L22.7783 11.9312C22.7782 11.9314 22.7781 11.9317 22.7781 11.9319C22.477 12.8012 21.9389 13.6478 21.2219 14.4462L21.2162 14.4526L21.2104 14.4589C20.9721 14.7142 20.6878 14.7843 20.5128 14.8002C20.3039 14.8192 19.9822 14.7806 19.7051 14.5305C19.4464 14.3007 19.3308 13.9755 19.3478 13.6686L19.3481 13.6634C19.4505 11.9981 18.9553 10.0425 17.7733 7.82547L17.7726 7.82412C16.8272 6.0436 15.5245 4.67118 13.9047 3.71514C13.9045 3.71501 13.9043 3.71488 13.9041 3.71476L13.6328 3.55519L13.6476 3.87684L13.6476 3.87693C13.6984 4.98891 13.5725 6.0199 13.2395 6.9118L25.4372 15.1667ZM25.4372 15.1667C26.008 16.4487 26.2945 17.8063 26.2945 19.207L26.2945 19.2089C26.2973 20.5485 26.0272 21.8746 25.5007 23.1064L25.5004 23.107C24.9927 24.2973 24.2648 25.3693 23.3347 26.2879L23.3324 26.2902C22.4116 27.2063 21.3211 27.9343 20.1219 28.4334L20.1213 28.4337C18.8745 28.9536 17.5538 29.218 16.1866 29.218C14.8195 29.218 13.4994 28.9537 12.2535 28.4312L12.2523 28.4307M25.4372 15.1667L12.2523 28.4307M11.6252 9.71154L11.6248 9.71201C11.1434 10.2975 10.5977 10.8271 9.99801 11.2909L9.99598 11.2924C8.78541 12.223 7.80097 13.4153 7.11629 14.7801C6.43472 16.1552 6.07967 17.6691 6.07876 19.2039L11.6252 9.71154ZM11.6252 9.71154C12.3178 8.86806 12.861 7.92667 13.2393 6.91221L11.6252 9.71154ZM12.2523 28.4307C11.0504 27.9287 9.97108 27.2058 9.03854 26.2848C8.11797 25.3742 7.3825 24.2939 6.87275 23.1036L12.2523 28.4307ZM6.87269 23.1035C6.34547 21.8685 6.07882 20.5598 6.07876 19.2044L6.87269 23.1035Z" stroke="#253655" stroke-width="1.77812"/>
</svg>
