<svg width="33" height="33" viewBox="0 0 33 33" fill="none" xmlns="http://www.w3.org/2000/svg">
<path d="M26.2494 14.8051C25.6429 13.4401 24.7613 12.2148 23.6595 11.2061L22.7504 10.372C22.7196 10.3445 22.6824 10.3249 22.6422 10.3151C22.602 10.3052 22.56 10.3054 22.5199 10.3156C22.4799 10.3258 22.4429 10.3456 22.4122 10.3734C22.3816 10.4013 22.3583 10.4362 22.3443 10.4751L21.9381 11.6404C21.6851 12.3714 21.2196 13.1181 20.5604 13.8523C20.5167 13.8991 20.4667 13.9116 20.4323 13.9148C20.398 13.9179 20.3448 13.9116 20.298 13.8679C20.2542 13.8304 20.2324 13.7742 20.2355 13.7179C20.3511 11.8372 19.7887 9.71593 18.5578 7.4072C17.5394 5.48899 16.1241 3.99253 14.3559 2.94907L13.0656 2.18991C12.8969 2.08993 12.6814 2.22115 12.6907 2.41797L12.7595 3.91755C12.8063 4.94226 12.6876 5.84826 12.4064 6.60117C12.0628 7.52279 11.5692 8.3788 10.9381 9.14734C10.4989 9.68145 10.0011 10.1646 9.45413 10.5876C8.1367 11.6003 7.06547 12.898 6.32063 14.3834C5.57763 15.8817 5.1906 17.5314 5.1897 19.2039C5.1897 20.6785 5.48024 22.1062 6.05508 23.4527C6.61013 24.7491 7.41114 25.9257 8.4138 26.9174C9.42601 27.9171 10.6007 28.7044 11.9097 29.2511C13.2656 29.8197 14.7027 30.1071 16.1866 30.1071C17.6706 30.1071 19.1077 29.8197 20.4636 29.2542C21.7693 28.7107 22.9568 27.918 23.9595 26.9205C24.9717 25.9208 25.7652 24.7524 26.3182 23.4558C26.8921 22.113 27.1866 20.6674 27.1836 19.207C27.1836 17.6825 26.8711 16.2016 26.2494 14.8051Z" fill="#00A2DD"/>
</svg>
