<svg width="30" height="28" viewBox="0 0 30 28" fill="none" xmlns="http://www.w3.org/2000/svg">
<g clip-path="url(#clip0_598_41)">
<path d="M14.2229 22.9585L13.4594 26.1272C13.4144 26.3189 13.3914 26.5121 13.3891 26.7039H12.5M14.2229 22.9585C14.3645 22.3627 14.6578 21.8197 15.0724 21.3873L19.8611 16.3944M14.2229 22.9585L13.3586 22.7502L13.3583 22.7515C13.5357 22.0063 13.904 21.3212 14.4308 20.7719L18.972 16.0369M14.2229 22.9585L13.358 22.7529L12.5951 25.9189L12.595 25.9189L12.5938 25.9241C12.533 26.1834 12.5023 26.4447 12.5 26.7039M19.8611 16.3944V9.92316H18.972M19.8611 16.3944L19.2194 15.779L18.972 16.0369M19.8611 16.3944H18.972V16.0369M18.972 9.92316V9.0341H13.3886C12.4936 9.0341 11.7705 8.28014 11.7705 7.34693V1.48733H10.8814M18.972 9.92316H13.3886C11.9679 9.92316 10.8814 8.73578 10.8814 7.34693V1.48733M18.972 9.92316V16.0369M10.8814 1.48733V0.598267H3.67985C1.89233 0.598267 0.443604 2.10881 0.443604 3.9726V24.2186C0.443604 26.0797 1.89233 27.5929 3.67985 27.5929H12.6047C12.5331 27.3041 12.4973 27.0055 12.5 26.7039M10.8814 1.48733H3.67985C2.41799 1.48733 1.33267 2.56445 1.33267 3.9726V24.2186C1.33267 25.6246 2.41843 26.7039 3.67985 26.7039H12.5M15.032 26.491L15.7905 23.3645C15.8613 23.0692 16.0079 22.8003 16.2152 22.5367M15.032 26.491C14.9612 26.8232 15.0421 27.129 15.2444 27.3398C15.4466 27.5455 15.7349 27.6298 16.013 27.5613M15.032 26.491L15.8912 26.6741L15.9032 26.671M15.032 26.491L15.841 26.6873L15.7877 26.7012L15.8094 26.7841L15.2444 27.3398L15.8123 26.7952L16.013 27.5613M16.013 27.5613L19.052 26.7652C19.3352 26.6913 19.5981 26.5384 19.8054 26.3223L26.3386 19.5103M16.013 27.5613L15.8219 26.786L15.886 26.7245C15.8895 26.7281 15.8927 26.7324 15.895 26.7366C15.8969 26.7401 15.8975 26.7422 15.8975 26.7422L15.8975 26.742C15.8972 26.7409 15.8928 26.7228 15.8999 26.6846L15.9032 26.671M26.3386 19.5103L23.3647 16.4139L22.7466 17.0538M26.3386 19.5103L25.697 18.8949L25.1063 19.5108M26.3386 19.5103L25.6974 20.1262L25.1063 19.5108M22.7466 17.0538L22.1303 16.4122L16.2152 22.5367M22.7466 17.0538L16.8886 23.1192M22.7466 17.0538L25.1063 19.5108M16.2152 22.5367L16.8547 23.1543L16.8886 23.1192M16.2152 22.5367L16.9141 23.0863C16.9053 23.0974 16.8969 23.1084 16.8886 23.1192M16.8886 23.1192C16.754 23.2968 16.6862 23.4416 16.655 23.5718L16.6545 23.5741L15.9032 26.671M25.1063 19.5108L19.1638 25.7069C19.0707 25.804 18.9524 25.8724 18.8278 25.9048L18.8267 25.9051L15.9032 26.671M15.8782 26.7164L15.8191 26.7745L15.8002 26.6981C15.8143 26.6946 15.8313 26.6947 15.8473 26.6994C15.8631 26.7039 15.8733 26.7114 15.8782 26.7164ZM28.3243 14.3977L28.3284 14.402C28.7887 14.8789 28.7915 15.6684 28.3264 16.1533L27.4819 17.0339L25.1277 14.5758L26.0246 13.6407C26.4618 13.1849 27.158 13.1813 27.6035 13.6409C27.6041 13.6415 27.6047 13.6421 27.6053 13.6427L28.3243 14.3977L28.3243 14.3977ZM14.2776 6.45787V2.80969L17.7765 6.45787H14.2776Z" stroke="#253655" stroke-width="1.77812"/>
</g>
<defs>
<clipPath id="clip0_598_41">
<rect width="29.1262" height="26.9947" fill="white" transform="translate(0.443604 0.598267)"/>
</clipPath>
</defs>
</svg>
