<svg width="30" height="28" viewBox="0 0 30 28" fill="none" xmlns="http://www.w3.org/2000/svg">
<g clip-path="url(#clip0_598_30)">
<path d="M0.443604 3.9726C0.443604 2.10881 1.89233 0.598267 3.67985 0.598267H11.7705V7.34693C11.7705 8.28014 12.4936 9.0341 13.3886 9.0341H19.8611V16.3944L15.0724 21.3873C14.6578 21.8197 14.3645 22.3627 14.2229 22.9585L13.4594 26.1272C13.3431 26.6228 13.3734 27.129 13.5302 27.5929H3.67985C1.89233 27.5929 0.443604 26.0797 0.443604 24.2186V3.9726ZM13.3886 7.34693V0.598267L19.8611 7.34693H13.3886ZM28.9681 13.7845C29.762 14.607 29.762 15.9409 28.9681 16.7687L27.4814 18.3188L23.8963 14.5754L25.3829 13.0253C26.1718 12.2028 27.4511 12.2028 28.245 13.0253L28.9681 13.7845ZM16.2152 22.5367L22.7484 15.7722L26.3386 19.5103L19.8054 26.3223C19.5981 26.5384 19.3352 26.6913 19.052 26.7652L16.013 27.5613C15.7349 27.6298 15.4466 27.5455 15.2444 27.3398C15.0421 27.129 14.9612 26.8232 15.032 26.491L15.7905 23.3645C15.8613 23.0692 16.0079 22.8003 16.2152 22.5367Z" fill="#00A2DD"/>
</g>
<defs>
<clipPath id="clip0_598_30">
<rect width="29.1262" height="26.9947" fill="white" transform="translate(0.443604 0.598267)"/>
</clipPath>
</defs>
</svg>
