<svg width="34" height="34" viewBox="0 0 34 34" fill="none" xmlns="http://www.w3.org/2000/svg">
<path d="M12.6691 12.3881C12.6691 12.7241 12.5356 13.0464 12.298 13.2839C12.0604 13.5215 11.7382 13.655 11.4022 13.655C11.0662 13.655 10.7439 13.5215 10.5064 13.2839C10.2688 13.0464 10.1353 12.7241 10.1353 12.3881C10.1353 12.0521 10.2688 11.7299 10.5064 11.4923C10.7439 11.2547 11.0662 11.1212 11.4022 11.1212C11.7382 11.1212 12.0604 11.2547 12.298 11.4923C12.5356 11.7299 12.6691 12.0521 12.6691 12.3881ZM11.4022 18.7227C11.7382 18.7227 12.0604 18.5892 12.298 18.3516C12.5356 18.114 12.6691 17.7918 12.6691 17.4558C12.6691 17.1198 12.5356 16.7975 12.298 16.5599C12.0604 16.3223 11.7382 16.1888 11.4022 16.1888C11.0662 16.1888 10.7439 16.3223 10.5064 16.5599C10.2688 16.7975 10.1353 17.1198 10.1353 17.4558C10.1353 17.7918 10.2688 18.114 10.5064 18.3516C10.7439 18.5892 11.0662 18.7227 11.4022 18.7227ZM12.6691 22.5234C12.6691 22.8594 12.5356 23.1817 12.298 23.4193C12.0604 23.6569 11.7382 23.7903 11.4022 23.7903C11.0662 23.7903 10.7439 23.6569 10.5064 23.4193C10.2688 23.1817 10.1353 22.8594 10.1353 22.5234C10.1353 22.1874 10.2688 21.8652 10.5064 21.6276C10.7439 21.39 11.0662 21.2565 11.4022 21.2565C11.7382 21.2565 12.0604 21.39 12.298 21.6276C12.5356 21.8652 12.6691 22.1874 12.6691 22.5234ZM16.0475 11.9658C15.8235 11.9658 15.6087 12.0548 15.4503 12.2132C15.2919 12.3716 15.2029 12.5864 15.2029 12.8104C15.2029 13.0344 15.2919 13.2492 15.4503 13.4076C15.6087 13.566 15.8235 13.655 16.0475 13.655H22.8044C23.0284 13.655 23.2433 13.566 23.4017 13.4076C23.56 13.2492 23.649 13.0344 23.649 12.8104C23.649 12.5864 23.56 12.3716 23.4017 12.2132C23.2433 12.0548 23.0284 11.9658 22.8044 11.9658H16.0475ZM15.2029 17.8781C15.2029 17.6541 15.2919 17.4392 15.4503 17.2808C15.6087 17.1224 15.8235 17.0335 16.0475 17.0335H22.8044C23.0284 17.0335 23.2433 17.1224 23.4017 17.2808C23.56 17.4392 23.649 17.6541 23.649 17.8781C23.649 18.1021 23.56 18.3169 23.4017 18.4753C23.2433 18.6337 23.0284 18.7227 22.8044 18.7227H16.0475C15.8235 18.7227 15.6087 18.6337 15.4503 18.4753C15.2919 18.3169 15.2029 18.1021 15.2029 17.8781ZM16.0475 22.1011C15.8235 22.1011 15.6087 22.1901 15.4503 22.3485C15.2919 22.5069 15.2029 22.7217 15.2029 22.9457C15.2029 23.1697 15.2919 23.3846 15.4503 23.5429C15.6087 23.7013 15.8235 23.7903 16.0475 23.7903H22.8044C23.0284 23.7903 23.2433 23.7013 23.4017 23.5429C23.56 23.3846 23.649 23.1697 23.649 22.9457C23.649 22.7217 23.56 22.5069 23.4017 22.3485C23.2433 22.1901 23.0284 22.1011 22.8044 22.1011H16.0475ZM5.06763 8.58736C5.06763 7.69134 5.42357 6.83202 6.05715 6.19844C6.69073 5.56486 7.55005 5.20892 8.44606 5.20892H25.3383C26.2343 5.20892 27.0936 5.56486 27.7272 6.19844C28.3607 6.83202 28.7167 7.69134 28.7167 8.58736V25.4795C28.7167 26.3756 28.3607 27.2349 27.7272 27.8685C27.0936 28.502 26.2343 28.858 25.3383 28.858H8.44606C7.55005 28.858 6.69073 28.502 6.05715 27.8685C5.42357 27.2349 5.06763 26.3756 5.06763 25.4795V8.58736ZM8.44606 6.89814C7.99806 6.89814 7.5684 7.07611 7.25161 7.3929C6.93482 7.70969 6.75685 8.13935 6.75685 8.58736V25.4795C6.75685 25.9276 6.93482 26.3572 7.25161 26.674C7.5684 26.9908 7.99806 27.1688 8.44606 27.1688H25.3383C25.7863 27.1688 26.2159 26.9908 26.5327 26.674C26.8495 26.3572 27.0275 25.9276 27.0275 25.4795V8.58736C27.0275 8.13935 26.8495 7.70969 26.5327 7.3929C26.2159 7.07611 25.7863 6.89814 25.3383 6.89814H8.44606Z" fill="#00A2DD"/>
</svg>
