<svg width="33" height="33" viewBox="0 0 33 33" fill="none" xmlns="http://www.w3.org/2000/svg">
<path d="M27.6884 21.4438C27.5847 21.3188 27.4828 21.1939 27.3829 21.0733C26.0082 19.4106 25.1766 18.4071 25.1766 13.7003C25.1766 11.2635 24.5936 9.26406 23.4446 7.76448C22.5973 6.65667 21.452 5.81628 19.9424 5.1952C19.923 5.18439 19.9057 5.17022 19.8912 5.15334C19.3482 3.33509 17.8624 2.11731 16.1866 2.11731C14.5108 2.11731 13.0256 3.33509 12.4826 5.15146C12.4682 5.16772 12.451 5.18145 12.432 5.19208C8.90927 6.6423 7.19725 9.42464 7.19725 13.6985C7.19725 18.4071 6.36685 19.4106 4.99099 21.0714C4.89102 21.192 4.78917 21.3144 4.68545 21.4419C4.41752 21.765 4.24777 22.1581 4.19628 22.5747C4.14479 22.9913 4.21372 23.4139 4.3949 23.7925C4.78042 24.6048 5.60207 25.109 6.53993 25.109H25.8402C26.7737 25.109 27.5897 24.6054 27.9764 23.7969C28.1584 23.4182 28.228 22.9952 28.1769 22.5782C28.1259 22.1611 27.9563 21.7674 27.6884 21.4438ZM16.1866 30.1095C17.0895 30.1088 17.9754 29.8637 18.7502 29.4002C19.5251 28.9368 20.1601 28.2722 20.5879 27.4771C20.608 27.439 20.618 27.3963 20.6168 27.3532C20.6156 27.3101 20.6032 27.2681 20.581 27.2312C20.5587 27.1943 20.5273 27.1637 20.4897 27.1426C20.4522 27.1214 20.4098 27.1103 20.3667 27.1103H12.0078C11.9646 27.1102 11.9222 27.1212 11.8845 27.1423C11.8469 27.1635 11.8154 27.194 11.793 27.2309C11.7707 27.2679 11.7583 27.3099 11.7571 27.3531C11.7558 27.3962 11.7658 27.4389 11.786 27.4771C12.2137 28.2721 12.8486 28.9366 13.6233 29.4001C14.3981 29.8635 15.2838 30.1087 16.1866 30.1095Z" fill="#00A2DD"/>
</svg>
