<svg width="33" height="33" viewBox="0 0 33 33" fill="none" xmlns="http://www.w3.org/2000/svg">
<path d="M26.6984 21.6407L26.6977 21.6398L26.6673 21.6031C25.996 20.7913 25.3605 20.0227 24.9285 18.8315C24.4966 17.6408 24.2875 16.0923 24.2875 13.7003C24.2875 11.4017 23.7383 9.60958 22.7389 8.30523L22.7384 8.30459C22.0018 7.3415 20.9933 6.5889 19.6042 6.0174L19.5559 5.99753L19.5102 5.97214C19.3987 5.91007 19.299 5.82865 19.216 5.73172L19.0933 5.58847L19.0393 5.40773C18.5886 3.89857 17.4031 3.00637 16.1866 3.00637C14.97 3.00637 13.7851 3.89864 13.3345 5.4061L13.2779 5.59542L13.1464 5.74294C13.066 5.83313 12.9712 5.90926 12.8657 5.96819L12.8195 5.99403L12.7705 6.0142C11.1544 6.67949 10.0057 7.62556 9.25078 8.85237C8.49087 10.0872 8.08631 11.6778 8.08631 13.6985C8.08631 16.0912 7.87756 17.6402 7.4459 18.8309C7.01333 20.0241 6.37645 20.7928 5.70321 21.6053L5.67563 21.6386L5.67544 21.6388L5.63831 21.6836C5.54997 21.7901 5.46323 21.8947 5.37505 22.0031L5.36986 22.0094L5.36983 22.0094C5.21034 22.2018 5.10928 22.4358 5.07863 22.6838C5.04798 22.9318 5.08901 23.1833 5.19687 23.4087L5.1981 23.4113C5.42844 23.8966 5.92644 24.22 6.53993 24.22H25.8402C26.4467 24.22 26.9419 23.8992 27.1744 23.4132L27.1751 23.4118C27.2834 23.1863 27.3249 22.9345 27.2945 22.6862C27.2641 22.4382 27.1634 22.2042 27.0043 22.0116L26.6984 21.6407ZM26.6984 21.6407C26.732 21.6812 26.7826 21.7427 26.8354 21.8069M26.6984 21.6407L26.8354 21.8069M26.8354 21.8069C26.8961 21.8806 26.9598 21.958 27.0039 22.0112L26.8354 21.8069ZM18.2939 28.6372C17.657 29.0182 16.9289 29.2197 16.1867 29.2204C15.4446 29.2196 14.7166 29.018 14.0797 28.6371C13.7816 28.4587 13.5086 28.2442 13.2666 27.9994H19.1073C18.8651 28.2443 18.5921 28.4589 18.2939 28.6372Z" stroke="#253655" stroke-width="1.77812"/>
</svg>
